<?xml version="1.0" encoding="utf-8"?>
<!-- Generator: Adobe Illustrator 21.0.0, SVG Export Plug-In . SVG Version: 6.00 Build 0)  -->
<svg version="1.1" id="Layer_1" xmlns="http://www.w3.org/2000/svg" xmlns:xlink="http://www.w3.org/1999/xlink" x="0px" y="0px"
	 viewBox="0 0 634 1294.3" style="enable-background:new 0 0 634 1294.3;" xml:space="preserve">
<style type="text/css">
	.st0{fill:#D1D3D4;}
	.st1{fill:none;stroke:#F1F2F2;stroke-width:3;stroke-miterlimit:10;}
	.st2{fill:#F1F2F2;}
</style>
<rect x="0" class="st0" width="634" height="1294.3"/>
<g>
	<path class="st1" d="M141.1,263.8c0.4-2.1,10.2-3.1,16-3.2c6.2-0.1,16.2,0.8,16.6,3c0.4,2-7.4,5.1-15,5.4
		C149.8,269.3,140.7,265.9,141.1,263.8z"/>
	<path class="st1" d="M143.1,265.8c0.6,2.2,1.2,4.3,1.8,6.5c-0.1,8.2-0.3,16.4-0.4,24.6c-4.3,8.4-7.6,15.3-10,20.4
		c-2.2,4.7-3.5,7.9-4.9,11.4c-1.6,4.3-2.8,7.9-3.6,10.5c-0.1,0.3-0.2,0.6-0.1,1.1c0,0.2,0.1,0.6,0.5,1.2c0.5,0.7,1.1,1.1,1.4,1.3
		c2.3,1.5,6.9,2.4,6.9,2.4c5.6,1.1,8.6,1.3,8.6,1.3c4.3,0.4,11.6,1,21.4,0.5c0,0,7-0.4,13.4-1.6c1.8-0.3,3.7-0.8,4.1-1
		c0.6-0.2,1.3-0.4,2.1-0.7c0.5-0.2,1.1-0.4,1.8-0.8c0.5-0.3,1.1-0.6,1.6-1.2c0,0,0.4-0.5,0.7-1c0.5-1-0.6-5.2-2.9-10.9
		c-2.4-5.5-4.5-10.1-6.2-13.6c-2.2-4.7-3.3-7-4.1-8.5c-1.5-2.7-2.5-5.5-4.2-8.1c-0.1-0.2-0.5-0.8-0.8-1.7c-0.1-0.4-0.2-0.7-0.2-1
		c0,0,0-0.3,0-0.5c0-0.8,0.2-20.3,0.3-23.4c0.5-2.6,1-5.1,1.5-7.7"/>
	<path class="st2" d="M148.2,302.2c-3.1,6.6-5.8,12.4-8.1,17.4c-1.3,2.9-2.6,5.7-3.7,8.7c-1.2,3.2-2.1,6-2.8,8
		c-0.1,0.2-0.1,0.5-0.1,0.8c0,0.1,0.1,0.5,0.4,0.9c0.4,0.5,0.9,0.9,1.1,1c1.8,1.1,5.2,1.8,5.2,1.8c4.2,0.8,6.5,1,6.5,1
		c3.3,0.3,8.8,0.8,16.2,0.4c0,0,5.3-0.3,10.2-1.2c1.4-0.3,2.8-0.6,3.1-0.7c0.5-0.1,1-0.3,1.6-0.5c0.4-0.1,0.8-0.3,1.4-0.6
		c0.4-0.2,0.9-0.5,1.3-0.9c0,0,0.3-0.3,0.5-0.8c0.3-0.7-0.4-4-2.2-8.3c-1.8-4.2-3.5-7.7-4.7-10.4c-0.8-1.7-1.4-2.9-1.9-4
		c-0.7-1.3-1.1-2.3-1.3-2.5c-0.8-1.6-2.1-4.5-4.5-10.1c-1.9,0.8-5,1.8-9.1,1.8C153.3,304,150,302.9,148.2,302.2z"/>
	
		<ellipse transform="matrix(9.482340e-03 -1 1 9.482340e-03 -64.4121 431.2604)" class="st2" cx="185.5" cy="248.1" rx="6.3" ry="6.3"/>
	
		<ellipse transform="matrix(9.482340e-03 -1 1 9.482340e-03 -63.3016 404.8592)" class="st2" cx="172.7" cy="234.4" rx="4.4" ry="4.4"/>
</g>
<g>
	<path class="st1" d="M142.4,701.9c0.3-1.8,8.5-2.6,13.4-2.7c5.2-0.1,13.5,0.7,13.9,2.5c0.4,1.7-6.2,4.3-12.6,4.5
		C149.8,706.5,142.1,703.7,142.4,701.9z"/>
	<path class="st1" d="M144.2,703.6c0.5,1.8,1,3.6,1.5,5.4c-0.1,6.9-0.2,13.7-0.3,20.6c-3.6,7-6.4,12.8-8.3,17.1
		c-1.8,3.9-2.9,6.6-4.1,9.5c-1.4,3.6-2.4,6.6-3,8.8c-0.1,0.2-0.1,0.5-0.1,0.9c0,0.1,0.1,0.5,0.4,1c0.4,0.6,1,1,1.2,1.1
		c1.9,1.2,5.8,2,5.8,2c4.7,0.9,7.2,1.1,7.2,1.1c3.6,0.3,9.7,0.9,17.9,0.4c0,0,5.8-0.3,11.3-1.3c1.5-0.3,3.1-0.7,3.4-0.8
		c0.5-0.1,1.1-0.3,1.8-0.6c0.4-0.2,0.9-0.4,1.5-0.7c0.4-0.2,0.9-0.5,1.4-1c0,0,0.4-0.4,0.6-0.9c0.4-0.8-0.5-4.4-2.4-9.1
		c-2-4.6-3.8-8.5-5.2-11.4c-1.8-3.9-2.8-5.8-3.5-7.1c-1.2-2.2-2.1-4.6-3.5-6.8c-0.1-0.2-0.4-0.7-0.7-1.4c-0.1-0.3-0.2-0.6-0.2-0.8
		c0,0,0-0.2,0-0.4c0-0.7,0.2-17,0.2-19.6c0.4-2.2,0.9-4.3,1.3-6.5"/>
	<path class="st2" d="M148.4,734c-2.6,5.5-4.9,10.4-6.8,14.5c-1.1,2.4-2.2,4.8-3.1,7.3c-1,2.7-1.8,5-2.3,6.7
		c-0.1,0.2-0.1,0.4-0.1,0.7c0,0.1,0.1,0.4,0.3,0.8c0.3,0.4,0.7,0.7,0.9,0.9c1.5,1,4.4,1.5,4.4,1.5c3.5,0.7,5.4,0.9,5.4,0.9
		c2.8,0.3,7.4,0.7,13.6,0.3c0,0,4.4-0.2,8.5-1c1.1-0.2,2.3-0.5,2.6-0.6c0.4-0.1,0.8-0.2,1.3-0.4c0.3-0.1,0.7-0.3,1.1-0.5
		c0.3-0.2,0.7-0.4,1-0.8c0,0,0.3-0.3,0.4-0.7c0.3-0.6-0.4-3.3-1.9-6.9c-1.5-3.5-2.9-6.5-3.9-8.7c-0.7-1.4-1.1-2.4-1.6-3.3
		c-0.5-1.1-0.9-1.9-1-2.1c-0.7-1.4-1.8-3.8-3.8-8.5c-1.6,0.6-4.2,1.5-7.6,1.5C152.7,735.6,150,734.7,148.4,734z"/>
	
		<ellipse transform="matrix(9.482340e-03 -1 1 9.482340e-03 -510.8827 861.921)" class="st2" cx="179.6" cy="688.8" rx="5.3" ry="5.3"/>
	
		<ellipse transform="matrix(9.482340e-03 -1 1 9.482340e-03 -509.9533 839.8258)" class="st2" cx="168.9" cy="677.3" rx="3.7" ry="3.7"/>
</g>
<g>
	<path class="st1" d="M469.4,87.3c0.4-2.1,10.2-3.1,16-3.2c6.2-0.1,16.2,0.8,16.6,3c0.4,2-7.4,5.1-15,5.4
		C478.2,92.9,469,89.5,469.4,87.3z"/>
	<path class="st1" d="M471.5,89.4c0.6,2.2,1.2,4.3,1.8,6.5c-0.1,8.2-0.3,16.4-0.4,24.6c-4.3,8.4-7.6,15.3-10,20.4
		c-2.2,4.7-3.5,7.9-4.9,11.4c-1.6,4.3-2.8,7.9-3.6,10.5c-0.1,0.3-0.2,0.6-0.1,1.1c0,0.2,0.1,0.6,0.5,1.2c0.5,0.7,1.1,1.1,1.4,1.3
		c2.3,1.5,6.9,2.4,6.9,2.4c5.6,1.1,8.6,1.3,8.6,1.3c4.3,0.4,11.6,1,21.4,0.5c0,0,7-0.4,13.4-1.6c1.8-0.3,3.7-0.8,4.1-1
		c0.6-0.2,1.3-0.4,2.1-0.7c0.5-0.2,1.1-0.4,1.8-0.8c0.5-0.3,1.1-0.6,1.6-1.2c0,0,0.4-0.5,0.7-1c0.5-1-0.6-5.2-2.9-10.9
		c-2.4-5.5-4.5-10.1-6.2-13.6c-2.2-4.7-3.3-7-4.1-8.5c-1.5-2.7-2.5-5.5-4.2-8.1c-0.1-0.2-0.5-0.8-0.8-1.7c-0.1-0.4-0.2-0.7-0.2-1
		c0,0,0-0.3,0-0.5c0-0.8,0.2-20.3,0.3-23.4c0.5-2.6,1-5.1,1.5-7.7"/>
	<path class="st2" d="M476.5,125.7c-3.1,6.6-5.8,12.4-8.1,17.4c-1.3,2.9-2.6,5.7-3.7,8.7c-1.2,3.2-2.1,6-2.8,8
		c-0.1,0.2-0.1,0.5-0.1,0.8c0,0.1,0.1,0.5,0.4,0.9c0.4,0.5,0.9,0.9,1.1,1c1.8,1.1,5.2,1.8,5.2,1.8c4.2,0.8,6.5,1,6.5,1
		c3.3,0.3,8.8,0.8,16.2,0.4c0,0,5.3-0.3,10.2-1.2c1.4-0.3,2.8-0.6,3.1-0.7c0.5-0.1,1-0.3,1.6-0.5c0.4-0.1,0.8-0.3,1.4-0.6
		c0.4-0.2,0.9-0.5,1.3-0.9c0,0,0.3-0.3,0.5-0.8c0.3-0.7-0.4-4-2.2-8.3c-1.8-4.2-3.5-7.7-4.7-10.4c-0.8-1.7-1.4-2.9-1.9-4
		c-0.7-1.3-1.1-2.3-1.3-2.5c-0.8-1.6-2.1-4.5-4.5-10.1c-1.9,0.8-5,1.8-9.1,1.8C481.6,127.6,478.4,126.5,476.5,125.7z"/>
	
		<ellipse transform="matrix(9.482340e-03 -1 1 9.482340e-03 437.2416 584.8774)" class="st2" cx="513.8" cy="71.7" rx="6.3" ry="6.3"/>
	
		<ellipse transform="matrix(9.482340e-03 -1 1 9.482340e-03 438.3521 558.4762)" class="st2" cx="501.1" cy="58" rx="4.4" ry="4.4"/>
</g>
<g>
	<path class="st1" d="M473.3,951.4c0.4-2.1,10.2-3.1,16-3.2c6.2-0.1,16.2,0.8,16.6,3c0.4,2-7.4,5.1-15,5.4
		C482.1,956.9,472.9,953.5,473.3,951.4z"/>
	<path class="st1" d="M475.4,953.5c0.6,2.2,1.2,4.3,1.8,6.5c-0.1,8.2-0.3,16.4-0.4,24.6c-4.3,8.4-7.6,15.3-10,20.4
		c-2.2,4.7-3.5,7.9-4.9,11.4c-1.6,4.3-2.8,7.9-3.6,10.5c-0.1,0.3-0.2,0.6-0.1,1.1c0,0.2,0.1,0.6,0.5,1.2c0.5,0.7,1.1,1.1,1.4,1.3
		c2.3,1.5,6.9,2.4,6.9,2.4c5.6,1.1,8.6,1.3,8.6,1.3c4.3,0.4,11.6,1,21.4,0.5c0,0,7-0.4,13.4-1.6c1.8-0.3,3.7-0.8,4.1-1
		c0.6-0.2,1.3-0.4,2.1-0.7c0.5-0.2,1.1-0.4,1.8-0.8c0.5-0.3,1.1-0.6,1.6-1.2c0,0,0.4-0.5,0.7-1c0.5-1-0.6-5.2-2.9-10.9
		c-2.4-5.5-4.5-10.1-6.2-13.6c-2.2-4.7-3.3-7-4.1-8.5c-1.5-2.7-2.5-5.5-4.2-8.1c-0.1-0.2-0.5-0.8-0.8-1.7c-0.1-0.4-0.2-0.7-0.2-1
		c0,0,0-0.3,0-0.5c0-0.8,0.2-20.3,0.3-23.4c0.5-2.6,1-5.1,1.5-7.7"/>
	<path class="st2" d="M480.4,989.8c-3.1,6.6-5.8,12.4-8.1,17.4c-1.3,2.9-2.6,5.7-3.7,8.7c-1.2,3.2-2.1,6-2.8,8
		c-0.1,0.2-0.1,0.5-0.1,0.8c0,0.1,0.1,0.5,0.4,0.9c0.4,0.5,0.9,0.9,1.1,1c1.8,1.1,5.2,1.8,5.2,1.8c4.2,0.8,6.5,1,6.5,1
		c3.3,0.3,8.8,0.8,16.2,0.4c0,0,5.3-0.3,10.2-1.2c1.4-0.3,2.8-0.6,3.1-0.7c0.5-0.1,1-0.3,1.6-0.5c0.4-0.1,0.8-0.3,1.4-0.6
		c0.4-0.2,0.9-0.5,1.3-0.9c0,0,0.3-0.3,0.5-0.8c0.3-0.7-0.4-4-2.2-8.3c-1.8-4.2-3.5-7.7-4.7-10.4c-0.8-1.7-1.4-2.9-1.9-4
		c-0.7-1.3-1.1-2.3-1.3-2.5c-0.8-1.6-2.1-4.5-4.5-10.1c-1.9,0.8-5,1.8-9.1,1.8C485.5,991.6,482.3,990.6,480.4,989.8z"/>
	
		<ellipse transform="matrix(9.482340e-03 -1 1 9.482340e-03 -422.9292 1444.5748)" class="st2" cx="517.7" cy="935.8" rx="6.3" ry="6.3"/>
	
		<ellipse transform="matrix(9.482340e-03 -1 1 9.482340e-03 -421.8187 1418.1736)" class="st2" cx="504.9" cy="922" rx="4.4" ry="4.4"/>
</g>
<g>
	<path class="st1" d="M138.2,1163.1c0.4-2.1,10.2-3.1,16-3.2c6.2-0.1,16.2,0.8,16.6,3c0.4,2-7.4,5.1-15,5.4
		C147,1168.6,137.8,1165.2,138.2,1163.1z"/>
	<path class="st1" d="M140.3,1165.1c0.6,2.2,1.2,4.3,1.8,6.5c-0.1,8.2-0.3,16.4-0.4,24.6c-4.3,8.4-7.6,15.3-10,20.4
		c-2.2,4.7-3.5,7.9-4.9,11.4c-1.6,4.3-2.8,7.9-3.6,10.5c-0.1,0.3-0.2,0.6-0.1,1.1c0,0.2,0.1,0.6,0.5,1.2c0.5,0.7,1.1,1.1,1.4,1.3
		c2.3,1.5,6.9,2.4,6.9,2.4c5.6,1.1,8.6,1.3,8.6,1.3c4.3,0.4,11.6,1,21.4,0.5c0,0,7-0.4,13.4-1.6c1.8-0.3,3.7-0.8,4.1-1
		c0.6-0.2,1.3-0.4,2.1-0.7c0.5-0.2,1.1-0.4,1.8-0.8c0.5-0.3,1.1-0.6,1.6-1.2c0,0,0.4-0.5,0.7-1c0.5-1-0.6-5.2-2.9-10.9
		c-2.4-5.5-4.5-10.1-6.2-13.6c-2.2-4.7-3.3-7-4.1-8.5c-1.5-2.7-2.5-5.5-4.2-8.1c-0.1-0.2-0.5-0.8-0.8-1.7c-0.1-0.4-0.2-0.7-0.2-1
		c0,0,0-0.3,0-0.5c0-0.8,0.2-20.3,0.3-23.4c0.5-2.6,1-5.1,1.5-7.7"/>
	<path class="st2" d="M145.3,1201.5c-3.1,6.6-5.8,12.4-8.1,17.4c-1.3,2.9-2.6,5.7-3.7,8.7c-1.2,3.2-2.1,6-2.8,8
		c-0.1,0.2-0.1,0.5-0.1,0.8c0,0.1,0.1,0.5,0.4,0.9c0.4,0.5,0.9,0.9,1.1,1c1.8,1.1,5.2,1.8,5.2,1.8c4.2,0.8,6.5,1,6.5,1
		c3.3,0.3,8.8,0.8,16.2,0.4c0,0,5.3-0.3,10.2-1.2c1.4-0.3,2.8-0.6,3.1-0.7c0.5-0.1,1-0.3,1.6-0.5c0.4-0.1,0.8-0.3,1.4-0.6
		c0.4-0.2,0.9-0.5,1.3-0.9c0,0,0.3-0.3,0.5-0.8c0.3-0.7-0.4-4-2.2-8.3c-1.8-4.2-3.5-7.7-4.7-10.4c-0.8-1.7-1.4-2.9-1.9-4
		c-0.7-1.3-1.1-2.3-1.3-2.5c-0.8-1.6-2.1-4.5-4.5-10.1c-1.9,0.8-5,1.8-9.1,1.8C150.4,1203.3,147.2,1202.2,145.3,1201.5z"/>
	
		<ellipse transform="matrix(9.482340e-03 -1 1 9.482340e-03 -966.4857 1319.2054)" class="st2" cx="182.6" cy="1147.4" rx="6.3" ry="6.3"/>
	
		<ellipse transform="matrix(9.482340e-03 -1 1 9.482340e-03 -965.3752 1292.8042)" class="st2" cx="169.9" cy="1133.7" rx="4.4" ry="4.4"/>
</g>
<g>
	<path class="st1" d="M469.7,476.7c0.4-2.1,10.2-3.1,16-3.2c6.2-0.1,16.2,0.8,16.6,3c0.4,2-7.4,5.1-15,5.4
		C478.5,482.2,469.3,478.8,469.7,476.7z"/>
	<path class="st1" d="M471.8,478.7c0.6,2.2,1.2,4.3,1.8,6.5c-0.1,8.2-0.3,16.4-0.4,24.6c-4.3,8.4-7.6,15.3-10,20.4
		c-2.2,4.7-3.5,7.9-4.9,11.4c-1.6,4.3-2.8,7.9-3.6,10.5c-0.1,0.3-0.2,0.6-0.1,1.1c0,0.2,0.1,0.6,0.5,1.2c0.5,0.7,1.1,1.1,1.4,1.3
		c2.3,1.5,6.9,2.4,6.9,2.4c5.6,1.1,8.6,1.3,8.6,1.3c4.3,0.4,11.6,1,21.4,0.5c0,0,7-0.4,13.4-1.6c1.8-0.3,3.7-0.8,4.1-1
		c0.6-0.2,1.3-0.4,2.1-0.7c0.5-0.2,1.1-0.4,1.8-0.8c0.5-0.3,1.1-0.6,1.6-1.2c0,0,0.4-0.5,0.7-1c0.5-1-0.6-5.2-2.9-10.9
		c-2.4-5.5-4.5-10.1-6.2-13.6c-2.2-4.7-3.3-7-4.1-8.5c-1.5-2.7-2.5-5.5-4.2-8.1c-0.1-0.2-0.5-0.8-0.8-1.7c-0.1-0.4-0.2-0.7-0.2-1
		c0,0,0-0.3,0-0.5c0-0.8,0.2-20.3,0.3-23.4c0.5-2.6,1-5.1,1.5-7.7"/>
	<path class="st2" d="M476.8,515.1c-3.1,6.6-5.8,12.4-8.1,17.4c-1.3,2.9-2.6,5.7-3.7,8.7c-1.2,3.2-2.1,6-2.8,8
		c-0.1,0.2-0.1,0.5-0.1,0.8c0,0.1,0.1,0.5,0.4,0.9c0.4,0.5,0.9,0.9,1.1,1c1.8,1.1,5.2,1.8,5.2,1.8c4.2,0.8,6.5,1,6.5,1
		c3.3,0.3,8.8,0.8,16.2,0.4c0,0,5.3-0.3,10.2-1.2c1.4-0.3,2.8-0.6,3.1-0.7c0.5-0.1,1-0.3,1.6-0.5c0.4-0.1,0.8-0.3,1.4-0.6
		c0.4-0.2,0.9-0.5,1.3-0.9c0,0,0.3-0.3,0.5-0.8c0.3-0.7-0.4-4-2.2-8.3c-1.8-4.2-3.5-7.7-4.7-10.4c-0.8-1.7-1.4-2.9-1.9-4
		c-0.7-1.3-1.1-2.3-1.3-2.5c-0.8-1.6-2.1-4.5-4.5-10.1c-1.9,0.8-5,1.8-9.1,1.8C481.9,516.9,478.7,515.8,476.8,515.1z"/>
	
		<ellipse transform="matrix(9.482340e-03 -1 1 9.482340e-03 48.2068 970.7643)" class="st2" cx="514.1" cy="461" rx="6.3" ry="6.3"/>
	
		<ellipse transform="matrix(9.482340e-03 -1 1 9.482340e-03 49.3173 944.363)" class="st2" cx="501.3" cy="447.3" rx="4.4" ry="4.4"/>
</g>
</svg>
