<?xml version="1.0" encoding="utf-8"?>
<!-- Generator: Adobe Illustrator 21.0.0, SVG Export Plug-In . SVG Version: 6.00 Build 0)  -->
<svg version="1.1" id="Layer_1" xmlns="http://www.w3.org/2000/svg" xmlns:xlink="http://www.w3.org/1999/xlink" x="0px" y="0px"
	 viewBox="0 0 242.1 217.7" style="enable-background:new 0 0 242.1 217.7;" xml:space="preserve">
<style type="text/css">
	.st0{fill:#92AFCC;stroke:#231F20;stroke-width:0.5;stroke-miterlimit:10;}
	.st1{fill:#939598;}
	.st2{fill:#807770;}
	.st3{fill:#D1D3D4;}
	.st4{fill:#FFFFFF;}
	.st5{fill:#1278BA;}
	.st6{fill:#231F20;}
	.st7{fill:#FBAD18;}
</style>
<g>
	<path class="st0" d="M170.8,189.3"/>
	<path class="st0" d="M134.9,154.6"/>
	<path class="st1" d="M118.1,27.2c-1.2-2.3-2.3-1.9-8-7.1c-0.4-0.3-5.2-4.9-9.6-11.5c-1.9-2.9-2-3.5-1.8-3.7c0.8-0.6,5.9,3.4,7,4.2
		c5.5,4.2,7.6,7.3,8.5,6.9c1.4-0.5-2.8-7.8-1.3-8.5c1.5-0.7,7.5,5.8,10.9,11.7c0.9,1.6,1.7,3.4,1.5,5.6c-0.1,2.2-1.1,3.5-1.7,4.6
		c-1.2,2.1-2.5,5.4-2.4,10.5c-1.7-0.1-3.4-0.3-5.1-0.4C118.4,35.9,120.3,31.3,118.1,27.2z"/>
	<path class="st1" d="M131,26.5c1.4-2.1,2.5-1.7,8.6-6.4c0.4-0.3,5.6-4.4,10.6-10.6c2.2-2.7,2.3-3.3,2.1-3.5
		c-0.7-0.7-6.2,2.8-7.4,3.5c-5.9,3.7-8.2,6.5-9.1,6.1c-1.3-0.6,3.5-7.6,2.1-8.4c-1.5-0.8-8,5.1-12,10.6c-1.1,1.5-2,3.3-2,5.4
		c-0.1,2.2,0.8,3.6,1.3,4.7c1.1,2.2,2,5.6,1.4,10.7c1.7,0,3.4,0,5.1,0C129.9,35.1,128.5,30.4,131,26.5z"/>
	<path class="st2" d="M147.9,189c1.9,1.7,2.8,1,9.9,4.2c0.4,0.2,6.5,2.9,12.8,7.7c2.8,2.1,3,2.7,2.9,2.9c-0.6,0.8-6.7-1.3-8-1.7
		c-6.6-2.2-9.6-4.4-10.3-3.8c-1.1,0.9,5.2,6.5,4,7.6c-1.2,1.1-9-3.1-14.1-7.5c-1.4-1.2-2.7-2.7-3.3-4.8c-0.6-2.1-0.1-3.7,0.2-4.9
		c0.5-2.4,0.6-5.9-1.2-10.7c1.6-0.4,3.3-0.8,4.9-1.2C144.7,180.9,144.5,185.8,147.9,189z"/>
	<path class="st2" d="M102.1,189c-1.9,1.7-2.8,1-9.9,4.2c-0.4,0.2-6.5,2.9-12.8,7.7c-2.8,2.1-3,2.7-2.9,2.9c0.6,0.8,6.7-1.3,8-1.7
		c6.6-2.2,9.6-4.4,10.3-3.8c1.1,0.9-5.2,6.5-4,7.6c1.2,1.1,9-3.1,14.1-7.5c1.4-1.2,2.7-2.7,3.3-4.8c0.6-2.1,0.1-3.7-0.2-4.9
		c-0.5-2.4-0.6-5.9,1.2-10.7c-1.6-0.4-3.3-0.8-4.9-1.2C105.3,180.9,105.5,185.8,102.1,189z"/>
	<path class="st3" d="M122.4,19.1c-2.6,0-53,1.5-69.8,34.2c-1.8,3.6-2.1,5.2-5.3,24.2c-10.6,62.1-12.8,71.9-6.6,83.3
		c5.6,10.3,14.2,14.9,27.1,21.8c48.9,26.1,99.5,6.5,112.4,0.8c11.4-5,20.5-9.1,26.7-18.9c6-9.5,4.6-16.9,1.6-55.4
		c-3-38.7-2.8-46.4-10.3-56.6c-6.4-8.7-13.8-13.1-22.2-18.1C168.5,29.9,149,18.7,122.4,19.1z"/>
	<path class="st4" d="M77.3,93C72.1,88.3,68.1,79,71.4,71c4.1-10,11-16,21.3-16.6c4.6-0.3,8.8,0.3,12.9,2.9c4.8,3.1,7.1,7.7,7,13.3
		c-0.1,7.1-2.5,13.6-6.7,18.5c-1.4,1.6-6.3,7.1-14.3,8.2c-4.7,0.6-8.4-0.6-10.4-1.5C80.2,95.2,78.8,94.4,77.3,93z"/>
	<path class="st4" d="M172.6,93c5.2-4.8,9.2-14.1,5.9-22.1c-4.1-10-11-16-21.3-16.6c-4.6-0.3-8.8,0.3-12.9,2.9
		c-4.8,3.1-7.1,7.7-7,13.3c0.1,7.1,2.5,13.6,6.7,18.5c1.4,1.6,6.3,7.1,14.3,8.2c4.7,0.6,8.4-0.6,10.4-1.5
		C169.6,95.2,171.1,94.4,172.6,93z"/>
	<path class="st5" d="M91.1,82.9c-3.1-2.6-5.5-7.8-3.6-12.2c2.4-5.5,6.4-8.8,12.4-9c2.7-0.1,5.2,0.2,7.6,1.7
		c2.8,1.7,4.2,4.3,4.2,7.3c0,3.9-1.4,7.5-3.9,10.1c-0.8,0.9-3.7,3.9-8.4,4.4c-2.8,0.3-5-0.4-6.1-0.9C92.8,84.1,92,83.6,91.1,82.9z"
		/>
	<path class="st5" d="M158.9,83.6c3.1-2.6,5.5-7.8,3.6-12.2c-2.4-5.5-6.4-8.8-12.5-9c-2.7-0.1-5.2,0.2-7.6,1.7
		c-2.9,1.7-4.2,4.3-4.2,7.3c0,3.9,1.4,7.5,3.9,10.2c0.8,0.9,3.7,3.9,8.4,4.4c2.8,0.3,5-0.4,6.2-0.9C157.2,84.8,158,84.4,158.9,83.6z
		"/>
	<path class="st6" d="M100.7,78c-1.5-1.3-2.7-3.7-1.7-5.8c1.2-2.6,3.1-4.2,6-4.3c1.3-0.1,2.5,0.1,3.7,0.8c1.4,0.8,2,2.1,2,3.5
		c0,1.9-0.7,3.6-1.9,4.8c-0.4,0.4-1.8,1.9-4,2.1c-1.3,0.1-2.4-0.2-3-0.4C101.6,78.6,101.2,78.4,100.7,78z"/>
	<path class="st4" d="M99.1,70.9c-0.4-0.4-0.7-1.1-0.5-1.7c0.3-0.8,0.9-1.2,1.7-1.3c0.4,0,0.7,0,1,0.2c0.4,0.2,0.6,0.6,0.5,1
		c0,0.6-0.2,1.1-0.5,1.4c-0.1,0.1-0.5,0.6-1.1,0.6c-0.4,0-0.7,0-0.8-0.1C99.4,71.1,99.3,71,99.1,70.9z"/>
	<g>
		<path class="st7" d="M126.5,115.1c1.7-0.2,3.3-3.2,6.5-9.2c0.3-0.5,1.1-1.7,2.4-3l0,0c0.4-0.7,0.9-1.8,1.3-3.2
			c0.2-0.9,1.3-5.3-1.5-9.3c-2-2.8-4.7-3.8-5.6-4.1c-2.8-0.9-5.2-0.3-6.1-0.1c-1.2,0.3-4.1,1-6,3.5c-2.4,3.2-1.7,7.2-1.3,9.7
			c0.4,2.2,1.1,3.9,1.7,5.1c0.1,0.1,0.2,0.2,0.3,0.4c1.2,3.2,1.8,4,1.8,4C120.6,110.7,123.8,115.5,126.5,115.1z"/>
	</g>
	<path class="st6" d="M117.8,104.5c2.2,0.3,4.8,0.6,7.8,0.5c3.5-0.1,6.5-0.6,8.9-1.1c-0.1,0.1-0.2,0.3-0.4,0.5
		c-0.3,0.3-0.5,0.6-0.5,0.6c-4,5.4-7.2,5.9-7.2,5.9C123.5,111.2,120.1,108.5,117.8,104.5z"/>
	<path class="st1" d="M43.3,100.5c-19.9,19.2-24,26.6-22.3,29.1c2.9,4.2,26.2-0.1,28.5-13.6C50.8,108.2,44.4,101.5,43.3,100.5z"/>
	<path class="st1" d="M207.8,99.9c19.9,19.2,24,26.6,22.3,29.1c-2.9,4.2-26.2-0.1-28.5-13.6C200.3,107.6,206.7,100.9,207.8,99.9z"/>
	<g>
		<g>
			<path class="st1" d="M102.2,41.2c-5.1-1.6-9.3-2.3-12.3-2.7c-8.5-1.2-19.2-2.6-28.2,3.2c-2.9,1.9-4.8,4-6,5.4
				c-1.2,1.5-2.7,3.8-4.1,6.6c-4.5,9.1-4.3,17.7-4,21.3c1,12.1,7.1,21.1,10.3,24.1c0.6,0.6,4.2,3.9,4.3,3.9c0,0,0,0,0,0
				c-2-1.7-6.9-6.4-8.6-14.4c-1.5-7.1,0.4-13,1.4-16.3c0,0,0.5-1.7,1.7-4.1c1.1-2.4,4.3-7.4,5.2-8.5C65,55.8,79.6,46.3,102.2,41.2z"
				/>
			<path class="st1" d="M118.4,83.6c-5.3,2.4-8.4,7.1-9.3,8.4c-1.6,2.6-2,4.6-4.6,7.1c-1.9,1.9-3.8,2.8-5.4,3.5
				c-1,0.5-4.8,2.2-10.1,2.6c-2,0.1-7.5,0.3-13.6-2.4c-1.3-0.6-2.9-1.3-4.8-2.8c-6.6-5-8.4-12.6-9.1-15.4c-0.2-1-0.5-2.2-0.7-3.8
				c-1.4-13.4,8.7-23,9.2-23.5c0.6-0.6,3.9-3.5,9-5.6c2.1-0.9,7.2-2.7,13.8-2.4c6.3,0.3,11.3,2.5,14.6,4c2.6,1.1,5.4,2.6,10.4,4.4
				c3.2,1.2,4.9,1.5,6.9,1.3c3.5-0.4,5.9-2.4,7.1-3.4c4.5-3.8,5.8-8.9,6.1-10.9c-6.1,2-10.9,2.1-14.1,1.8c-4.9-0.4-7.6-1.8-15.5-3.8
				c-5.3-1.4-9.6-2.2-12.4-2.6c-2.4,1.1-4.4,1.7-5.8,2c-3.2,0.8-4.7,0.7-8,1.8c-1.3,0.4-2.7,0.9-4.1,1.6c-1.6,0.7-5.6,2.7-10,6.3
				C66,53.6,61.3,57.5,57.8,64c-1.6,2.9-7.7,14.1-4.1,26c2.1,6.9,6.5,11,8.5,12.9c5.4,4.9,11.1,6.5,14.5,7.4c1,0.3,4.7,1.2,9.7,1.4
				c2.7,0.1,5.5,0.2,9.1-0.7c3.6-0.9,6.4-2.5,8.2-3.6c0.4,0.1,5,1.5,7.9-1.3c1-1,1.5-2.2,1.7-2.6c0.9-2.3,0.3-3.7,0.4-6.5
				c0-1.5,0.1-4.3,1.7-6.9c1.7-2.8,4.4-3.9,5.4-4.4c0.7-0.3,6.3-2.5,11.5,0.6c2.4,1.4,3.7,3.4,4.3,4.5c0.9-0.7,1.8-1.4,2.8-2.1
				c-0.8-1.1-2.1-2.7-4.2-4C130.1,81.3,123.4,81.4,118.4,83.6z"/>
		</g>
		<g>
			<path class="st1" d="M145.7,42.3c4.7-1.4,8.7-2.4,11.7-3.1c4.2-0.9,7.2-1.6,11.3-2c3.5-0.3,5.8-0.6,8.7-0.2
				c2.7,0.3,7.4,1.3,12.6,4.9c2.1,1.4,5.2,3.9,8,7.6c7.7,10.3,7,22.2,6.8,25.2c0,0-0.7,10.2-7.2,20.1c-1.9,3-4.2,5.1-4.2,5.1
				c-1.1,1-2.1,1.8-2.7,2.2c1.8-1.6,6.4-6.4,8.1-14.3c1.7-7.8-0.5-14.1-1.4-16.3c0,0-0.5-1.7-1.7-4.1c-1.2-2.4-4.4-7.5-5.2-8.5
				C187.4,55.1,170.8,45.6,145.7,42.3z"/>
			<path class="st1" d="M139.3,88.3c2,2.1,2.2,3,5.5,7.1c0.7,0.9,1.7,1.9,3,3c2.6,2.1,4.9,3.3,5.4,3.5c4.3,2,8.3,1.9,10.9,1.9
				c2.4-0.1,6.5-0.2,11.1-2.3c5.7-2.7,8.8-6.8,10.1-8.6c1.3-1.7,4.3-5.9,5.1-12c1.8-13-8.4-22.6-10-24c-1.2-1.1-4.6-4.1-9.9-6.1
				c-2.4-0.9-10-3.5-18.7-1.4c-4,1-7.8,2.9-15.4,6.7c-2.5,1.3-5.4,2.8-9.6,3c-2.8,0.1-5.1-0.4-6.7-0.9c4-4.1,8.1-8.2,12.1-12.3
				c0.7-0.1,1.7-0.4,3-0.7c2.3-0.6,3.8-1.2,5.1-1.6c3.4-1.1,6.7-1.8,6.7-1.8h0c0,0,5-1.2,10.5-1c1.6,0.1,2.8,0.2,4.5,0.5
				c3,0.5,7.1,1.1,12.1,3.4c1.6,0.7,5.6,2.7,10,6.3c2.2,1.8,6.8,5.8,10.3,12.3c1.7,3.2,7.5,13.8,4.1,26c-1.3,4.8-3.7,8.3-5.3,10.5
				c-3.2,2.8-9.3,7.5-17.7,9.8c-4.1,1.1-7.9,1.3-9.7,1.4c-2.7,0.1-5.5,0.2-9.1-0.7c-3.6-0.9-6.4-2.5-8.2-3.6c-0.4,0.1-5,1.5-7.9-1.3
				c-1-0.9-1.4-2-1.7-2.6c-1-2.4-0.3-3.6-0.6-6.3c-0.1-0.5-0.5-3.7-2.5-6.7c-0.7-1.1-2.2-2.8-4.6-4.3c-1.1-1.5-1.2-2-1-2.2
				C130.9,82.5,135.8,84.5,139.3,88.3z"/>
		</g>
	</g>
	<path class="st6" d="M149.2,78c1.5-1.3,2.7-3.7,1.7-5.8c-1.2-2.6-3.1-4.2-6-4.3c-1.3-0.1-2.5,0.1-3.7,0.8c-1.4,0.8-2,2.1-2,3.5
		c0,1.9,0.7,3.6,1.9,4.8c0.4,0.4,1.8,1.9,4,2.1c1.3,0.1,2.4-0.2,3-0.4C148.4,78.6,148.8,78.3,149.2,78z"/>
	<path class="st4" d="M150.8,70.9c0.4-0.4,0.7-1.1,0.5-1.7c-0.3-0.8-0.9-1.2-1.7-1.3c-0.4,0-0.7,0-1,0.2c-0.4,0.2-0.6,0.6-0.5,1
		c0,0.6,0.2,1.1,0.5,1.4c0.1,0.1,0.5,0.6,1.1,0.6c0.4,0,0.7,0,0.8-0.1C150.6,71,150.7,71,150.8,70.9z"/>
</g>
</svg>
