<svg xmlns="http://www.w3.org/2000/svg" viewBox="0 0 605.16 916.92"><defs><style>.cls-1{fill:#f3d0aa;}.cls-2{fill:#dab28b;}.cls-3{fill:#a6a8ab;}.cls-4{fill:#bbbdbf;}.cls-5{fill:#231f20;}</style></defs><title>Avatar</title><g id="Layer_2" data-name="Layer 2"><g id="Male"><g id="oval"><path class="cls-1" d="M594.74,724s-117.34-13.85-147.33-71.27c-5.67-16,0-107.47,0-107.47H157.75s5.67,91.47,0,107.47C127.75,710.14,10.42,724,10.42,724c167,167.65,287.08,160.4,292.16,160C307.66,884.4,427.74,891.65,594.74,724Z"/><path class="cls-1" d="M526,310.41c-12.55-7.53-22.46,3.84-26.58,9.92C509.59,272.1,546.55,33.06,302.75,33.06c-245,0-206.48,241.33-196.47,287.95v.05c-3.79-5.82-14-18.5-27.07-10.66-14.78,8.87-1.62,94.89,29.62,111.88q.47,6.38,1.06,12.77c6,64,24.81,115.85,40.77,137.67,17.2,23.51,78.29,86.51,152.09,86.51s134.89-63,152.09-86.51c16-21.81,34.81-73.69,40.77-137.67q.61-6.5,1.07-13C527.67,404.64,540.68,319.25,526,310.41Z"/><path class="cls-2" d="M302.75,687.9c63.28,0,117.2-56.35,142.14-87.24,0-5.25.13-10.72.3-16.1-24.8,28-78.91,74.67-142.44,74.67-63.84,0-118.16-47.13-142.8-75.07.18,5.36.3,10.82.32,16.07C185.05,631,239.19,687.9,302.75,687.9Z"/></g><g id="V-neck_sweater" data-name="V-neck sweater"><path class="cls-3" d="M498.92,683.76c-21.14,35.43-161,194-196.34,194s-175.2-158.57-196.34-194C80.62,696.88,0,725.09,0,725.09S119.45,916.92,302.33,916.92h.49c182.89,0,302.33-191.83,302.33-191.83S524.54,696.88,498.92,683.76Z"/><path class="cls-4" d="M504,682.76c-2.12-3.46-23-33.46-26.26-28.38,0,0-155.33,194.5-175.21,194.5s-175.21-194.5-175.21-194.5c-3.3-5.08-24.14,24.92-26.26,28.38a5.09,5.09,0,0,0,0,5.14s160.58,199,201.47,199S504,687.9,504,687.9A5.09,5.09,0,0,0,504,682.76Z"/></g><g id="Hair_-_front" data-name="Hair - front"><path id="Style_4" data-name="Style 4" class="cls-5" d="M524.51,160.43s11.33,8,16.67,15.33c0,0,2.57-61.11-51.09-88,2.65-7.72,15.08-15,15.08-15-8-3.33-22.92,3.53-22.92,3.53-.55-.41,3.42-27.64,3.42-27.64C485,54.66,473,69.79,473,69.79l-2.35,2C458,54.25,421,18.73,321.95,3.24c-95.8-15-154,27-192,24,0,0,10.32,14.73,29.5,10.6-2.32.65-13.92,5.43-58.28,40.92,0,0-26,28-60,30,0,0,18,36.67,30,38,0,0-10,11.33-30,14,0,0,14,24,27.33,22,0,0-21.33,4.67-27.33,2,0,0,22.19,107.67,76.19,145.67,0,0-3.65-76.36,5.63-92.36s42.78-52.13,46.55-54.53c16.5-10.5,11.91-.31,24.91,2.69s3.72-3.33,4.72-4.4-2,3.93,31,13.93c0,0-1.67-2.33,0-3.67s22.81,6.67,72.41,12c0,0,9.26-7.33,9.93-9.33,0,0-2.61,11.67,1.33,10.67,12.67-3.23,20.59-6.81,28-12.67l-1.33,8c2.59,1.28,11.34.1,19.84-1.4,10.17-1.79,32.16-12.6,32.16-12.6l34.57-5.39s36,41,50.32,58c12.5,14.89,10,90.36,10,90.36s40.67-26,39.81-59.67c0,0,8,6.67,8,10.67C535.17,280.76,561.84,216.43,524.51,160.43Z"/></g></g></g></svg>